<svg xmlns="http://www.w3.org/2000/svg" xmlns:xlink="http://www.w3.org/1999/xlink" width="6912" zoomAndPan="magnify" viewBox="0 0 5184 1295.99994" height="1728" preserveAspectRatio="xMidYMid meet" version="1.0"><defs><g/><clipPath id="db6c5734dc"><path d="M 482 339 L 933 339 L 933 945.628906 L 482 945.628906 Z M 482 339 " clip-rule="nonzero"/></clipPath><clipPath id="fdee6598ce"><path d="M 2221.222656 433.15625 L 2468 433.15625 L 2468 676.820312 L 2221.222656 676.820312 Z M 2221.222656 433.15625 " clip-rule="nonzero"/></clipPath><clipPath id="c8ce3724a3"><path d="M 2240.140625 515 L 2292 515 L 2292 575 L 2240.140625 575 Z M 2240.140625 515 " clip-rule="nonzero"/></clipPath><clipPath id="6e3f3a9d4e"><path d="M 2273.847656 541.578125 L 2415.40625 541.578125 L 2415.40625 651.9375 L 2273.847656 651.9375 Z M 2273.847656 541.578125 " clip-rule="nonzero"/></clipPath></defs><g fill="#000000" fill-opacity="1"><g transform="translate(2589.484116, 634.7737)"><g><path d="M 0.640625 -0.0625 C 0.628906 -0.0390625 0.601562 -0.0195312 0.5625 0 C 0.519531 0.0078125 0.472656 0.015625 0.421875 0.015625 C 0.347656 0.015625 0.28125 0 0.21875 -0.03125 C 0.164062 -0.0703125 0.125 -0.117188 0.09375 -0.171875 C 0.0625 -0.234375 0.046875 -0.296875 0.046875 -0.359375 C 0.046875 -0.429688 0.0625 -0.492188 0.09375 -0.546875 C 0.125 -0.609375 0.164062 -0.65625 0.21875 -0.6875 C 0.269531 -0.726562 0.332031 -0.75 0.40625 -0.75 C 0.445312 -0.75 0.488281 -0.738281 0.53125 -0.71875 C 0.570312 -0.707031 0.601562 -0.695312 0.625 -0.6875 L 0.578125 -0.546875 C 0.523438 -0.585938 0.46875 -0.609375 0.40625 -0.609375 C 0.375 -0.609375 0.34375 -0.597656 0.3125 -0.578125 C 0.28125 -0.554688 0.253906 -0.523438 0.234375 -0.484375 C 0.210938 -0.453125 0.203125 -0.414062 0.203125 -0.375 C 0.203125 -0.320312 0.207031 -0.273438 0.21875 -0.234375 C 0.238281 -0.203125 0.265625 -0.175781 0.296875 -0.15625 C 0.335938 -0.132812 0.378906 -0.125 0.421875 -0.125 C 0.453125 -0.125 0.484375 -0.128906 0.515625 -0.140625 C 0.546875 -0.160156 0.570312 -0.175781 0.59375 -0.1875 Z M 0.640625 -0.0625 "/></g></g></g><g fill="#000000" fill-opacity="1"><g transform="translate(2590.181119, 634.7737)"><g><path d="M 0.546875 -0.4375 L 0.546875 0 L 0.40625 0 L 0.40625 -0.046875 C 0.363281 -0.00390625 0.3125 0.015625 0.25 0.015625 C 0.1875 0.015625 0.132812 -0.00390625 0.09375 -0.046875 C 0.0507812 -0.0859375 0.03125 -0.144531 0.03125 -0.21875 C 0.03125 -0.269531 0.0390625 -0.3125 0.0625 -0.34375 C 0.0820312 -0.382812 0.109375 -0.410156 0.140625 -0.421875 C 0.171875 -0.441406 0.207031 -0.453125 0.25 -0.453125 C 0.289062 -0.453125 0.320312 -0.445312 0.34375 -0.4375 C 0.363281 -0.425781 0.382812 -0.410156 0.40625 -0.390625 L 0.40625 -0.4375 Z M 0.296875 -0.109375 C 0.347656 -0.109375 0.382812 -0.128906 0.40625 -0.171875 L 0.40625 -0.28125 C 0.394531 -0.300781 0.378906 -0.316406 0.359375 -0.328125 C 0.335938 -0.335938 0.316406 -0.34375 0.296875 -0.34375 C 0.265625 -0.34375 0.238281 -0.332031 0.21875 -0.3125 C 0.195312 -0.289062 0.1875 -0.257812 0.1875 -0.21875 C 0.1875 -0.195312 0.191406 -0.175781 0.203125 -0.15625 C 0.210938 -0.144531 0.222656 -0.132812 0.234375 -0.125 C 0.253906 -0.113281 0.273438 -0.109375 0.296875 -0.109375 Z M 0.296875 -0.109375 "/></g></g></g><g fill="#000000" fill-opacity="1"><g transform="translate(2590.795123, 634.7737)"><g><path d="M 0.375 -0.453125 C 0.414062 -0.453125 0.453125 -0.441406 0.484375 -0.421875 C 0.515625 -0.410156 0.539062 -0.382812 0.5625 -0.34375 C 0.582031 -0.3125 0.59375 -0.273438 0.59375 -0.234375 C 0.59375 -0.179688 0.582031 -0.132812 0.5625 -0.09375 C 0.539062 -0.0625 0.507812 -0.0351562 0.46875 -0.015625 C 0.4375 0.00390625 0.398438 0.015625 0.359375 0.015625 C 0.296875 0.015625 0.25 -0.00390625 0.21875 -0.046875 L 0.21875 0 L 0.078125 0 L 0.078125 -0.78125 L 0.21875 -0.78125 L 0.21875 -0.40625 C 0.226562 -0.425781 0.25 -0.4375 0.28125 -0.4375 C 0.3125 -0.445312 0.34375 -0.453125 0.375 -0.453125 Z M 0.328125 -0.109375 C 0.347656 -0.109375 0.363281 -0.113281 0.375 -0.125 C 0.394531 -0.132812 0.410156 -0.144531 0.421875 -0.15625 C 0.429688 -0.175781 0.4375 -0.203125 0.4375 -0.234375 C 0.4375 -0.265625 0.425781 -0.289062 0.40625 -0.3125 C 0.382812 -0.332031 0.359375 -0.34375 0.328125 -0.34375 C 0.296875 -0.34375 0.269531 -0.335938 0.25 -0.328125 C 0.226562 -0.316406 0.21875 -0.300781 0.21875 -0.28125 L 0.21875 -0.171875 C 0.238281 -0.128906 0.273438 -0.109375 0.328125 -0.109375 Z M 0.328125 -0.109375 "/></g></g></g><g fill="#000000" fill-opacity="1"><g transform="translate(2591.419125, 634.7737)"><g><path d="M 0.296875 -0.109375 C 0.316406 -0.109375 0.34375 -0.117188 0.375 -0.140625 L 0.4375 -0.03125 C 0.414062 -0.0195312 0.390625 -0.0078125 0.359375 0 C 0.335938 0.0078125 0.3125 0.015625 0.28125 0.015625 C 0.226562 0.015625 0.179688 0.00390625 0.140625 -0.015625 C 0.109375 -0.0351562 0.0820312 -0.0625 0.0625 -0.09375 C 0.0390625 -0.132812 0.03125 -0.175781 0.03125 -0.21875 C 0.03125 -0.257812 0.0390625 -0.296875 0.0625 -0.328125 C 0.09375 -0.367188 0.125 -0.398438 0.15625 -0.421875 C 0.195312 -0.441406 0.242188 -0.453125 0.296875 -0.453125 C 0.359375 -0.453125 0.40625 -0.429688 0.4375 -0.390625 C 0.476562 -0.359375 0.503906 -0.3125 0.515625 -0.25 L 0.203125 -0.140625 C 0.222656 -0.117188 0.253906 -0.109375 0.296875 -0.109375 Z M 0.28125 -0.34375 C 0.25 -0.34375 0.222656 -0.332031 0.203125 -0.3125 C 0.179688 -0.289062 0.171875 -0.265625 0.171875 -0.234375 L 0.171875 -0.21875 L 0.375 -0.28125 C 0.351562 -0.320312 0.320312 -0.34375 0.28125 -0.34375 Z M 0.28125 -0.34375 "/></g></g></g><g fill="#000000" fill-opacity="1"><g transform="translate(2591.972128, 634.7737)"><g><path d="M 0.4375 -0.03125 C 0.425781 -0.0195312 0.40625 -0.0078125 0.375 0 C 0.34375 0.0078125 0.316406 0.015625 0.296875 0.015625 L 0.28125 0.03125 C 0.3125 0.03125 0.335938 0.0351562 0.359375 0.046875 C 0.378906 0.0664062 0.390625 0.09375 0.390625 0.125 C 0.390625 0.15625 0.375 0.179688 0.34375 0.203125 C 0.3125 0.222656 0.273438 0.234375 0.234375 0.234375 C 0.179688 0.234375 0.140625 0.21875 0.109375 0.1875 L 0.15625 0.140625 C 0.164062 0.140625 0.175781 0.140625 0.1875 0.140625 C 0.195312 0.148438 0.207031 0.15625 0.21875 0.15625 C 0.226562 0.15625 0.238281 0.148438 0.25 0.140625 C 0.257812 0.140625 0.265625 0.132812 0.265625 0.125 C 0.265625 0.101562 0.25 0.09375 0.21875 0.09375 C 0.207031 0.09375 0.1875 0.0976562 0.15625 0.109375 L 0.140625 0.03125 L 0.1875 0 C 0.144531 -0.0078125 0.109375 -0.0351562 0.078125 -0.078125 C 0.046875 -0.117188 0.03125 -0.164062 0.03125 -0.21875 C 0.03125 -0.257812 0.0390625 -0.296875 0.0625 -0.328125 C 0.09375 -0.367188 0.125 -0.398438 0.15625 -0.421875 C 0.1875 -0.441406 0.222656 -0.453125 0.265625 -0.453125 C 0.335938 -0.453125 0.398438 -0.429688 0.453125 -0.390625 L 0.375 -0.296875 C 0.351562 -0.316406 0.320312 -0.328125 0.28125 -0.328125 C 0.25 -0.328125 0.222656 -0.316406 0.203125 -0.296875 C 0.179688 -0.273438 0.171875 -0.25 0.171875 -0.21875 C 0.171875 -0.1875 0.179688 -0.160156 0.203125 -0.140625 C 0.234375 -0.117188 0.265625 -0.109375 0.296875 -0.109375 C 0.328125 -0.109375 0.351562 -0.113281 0.375 -0.125 Z M 0.4375 -0.03125 "/></g></g></g><g fill="#000000" fill-opacity="1"><g transform="translate(2592.451131, 634.7737)"><g><path d="M 0.546875 -0.4375 L 0.546875 0 L 0.40625 0 L 0.40625 -0.046875 C 0.363281 -0.00390625 0.3125 0.015625 0.25 0.015625 C 0.1875 0.015625 0.132812 -0.00390625 0.09375 -0.046875 C 0.0507812 -0.0859375 0.03125 -0.144531 0.03125 -0.21875 C 0.03125 -0.269531 0.0390625 -0.3125 0.0625 -0.34375 C 0.0820312 -0.382812 0.109375 -0.410156 0.140625 -0.421875 C 0.171875 -0.441406 0.207031 -0.453125 0.25 -0.453125 C 0.289062 -0.453125 0.320312 -0.445312 0.34375 -0.4375 C 0.363281 -0.425781 0.382812 -0.410156 0.40625 -0.390625 L 0.40625 -0.4375 Z M 0.296875 -0.109375 C 0.347656 -0.109375 0.382812 -0.128906 0.40625 -0.171875 L 0.40625 -0.28125 C 0.394531 -0.300781 0.378906 -0.316406 0.359375 -0.328125 C 0.335938 -0.335938 0.316406 -0.34375 0.296875 -0.34375 C 0.265625 -0.34375 0.238281 -0.332031 0.21875 -0.3125 C 0.195312 -0.289062 0.1875 -0.257812 0.1875 -0.21875 C 0.1875 -0.195312 0.191406 -0.175781 0.203125 -0.15625 C 0.210938 -0.144531 0.222656 -0.132812 0.234375 -0.125 C 0.253906 -0.113281 0.273438 -0.109375 0.296875 -0.109375 Z M 0.296875 -0.109375 "/></g></g></g><g fill="#000000" fill-opacity="1"><g transform="translate(2593.065134, 634.7737)"><g><path d="M 0.21875 -0.78125 L 0.21875 0 L 0.078125 0 L 0.078125 -0.78125 Z M 0.21875 -0.78125 "/></g></g></g><g fill="#000000" fill-opacity="1"><g transform="translate(2593.349135, 634.7737)"><g><path d="M 0.375 -0.453125 C 0.414062 -0.453125 0.445312 -0.441406 0.46875 -0.421875 C 0.5 -0.398438 0.515625 -0.367188 0.515625 -0.328125 L 0.515625 0 L 0.375 0 L 0.375 -0.28125 C 0.375 -0.320312 0.351562 -0.34375 0.3125 -0.34375 C 0.28125 -0.34375 0.253906 -0.328125 0.234375 -0.296875 C 0.222656 -0.265625 0.21875 -0.222656 0.21875 -0.171875 L 0.21875 0 L 0.078125 0 L 0.078125 -0.78125 L 0.203125 -0.78125 L 0.203125 -0.375 C 0.222656 -0.394531 0.242188 -0.410156 0.265625 -0.421875 C 0.296875 -0.441406 0.332031 -0.453125 0.375 -0.453125 Z M 0.375 -0.453125 "/></g></g></g><g fill="#000000" fill-opacity="1"><g transform="translate(2593.943138, 634.7737)"><g><path d="M 0.03125 -0.21875 C 0.03125 -0.269531 0.0390625 -0.3125 0.0625 -0.34375 C 0.0820312 -0.375 0.113281 -0.398438 0.15625 -0.421875 C 0.195312 -0.441406 0.238281 -0.453125 0.28125 -0.453125 C 0.332031 -0.453125 0.375 -0.441406 0.40625 -0.421875 C 0.445312 -0.398438 0.476562 -0.375 0.5 -0.34375 C 0.519531 -0.3125 0.53125 -0.269531 0.53125 -0.21875 C 0.53125 -0.175781 0.519531 -0.132812 0.5 -0.09375 C 0.476562 -0.0625 0.445312 -0.0351562 0.40625 -0.015625 C 0.375 0.00390625 0.332031 0.015625 0.28125 0.015625 C 0.238281 0.015625 0.195312 0.00390625 0.15625 -0.015625 C 0.113281 -0.0351562 0.0820312 -0.0625 0.0625 -0.09375 C 0.0390625 -0.132812 0.03125 -0.175781 0.03125 -0.21875 Z M 0.171875 -0.21875 C 0.171875 -0.1875 0.179688 -0.160156 0.203125 -0.140625 C 0.222656 -0.117188 0.25 -0.109375 0.28125 -0.109375 C 0.3125 -0.109375 0.335938 -0.117188 0.359375 -0.140625 C 0.378906 -0.160156 0.390625 -0.1875 0.390625 -0.21875 C 0.390625 -0.257812 0.378906 -0.289062 0.359375 -0.3125 C 0.335938 -0.332031 0.3125 -0.34375 0.28125 -0.34375 C 0.25 -0.34375 0.222656 -0.332031 0.203125 -0.3125 C 0.179688 -0.289062 0.171875 -0.257812 0.171875 -0.21875 Z M 0.171875 -0.21875 "/></g></g></g><g fill="#000000" fill-opacity="1"><g transform="translate(956.500236, 944.977557)"><g><path d="M 517.59375 -48.796875 C 502.664062 -36.535156 478.929688 -24.269531 446.390625 -12 C 413.859375 0.269531 378.394531 6.40625 340 6.40625 C 278.664062 6.40625 225.332031 -6.925781 180 -33.59375 C 134.664062 -60.257812 100 -96.125 76 -141.1875 C 52 -186.257812 40 -235.726562 40 -289.59375 C 40 -348.800781 52 -401.601562 76 -448 C 100 -494.394531 133.597656 -530.523438 176.796875 -556.390625 C 219.992188 -582.265625 269.863281 -595.203125 326.40625 -595.203125 C 362.132812 -595.203125 395.195312 -590.398438 425.59375 -580.796875 C 456 -571.203125 482.664062 -559.203125 505.59375 -544.796875 L 460 -435.203125 C 417.863281 -467.203125 374.664062 -483.203125 330.40625 -483.203125 C 300.53125 -483.203125 272.523438 -474.929688 246.390625 -458.390625 C 220.265625 -441.859375 199.46875 -419.328125 184 -390.796875 C 168.53125 -362.265625 160.796875 -330.664062 160.796875 -296 C 160.796875 -258.132812 167.992188 -224.929688 182.390625 -196.390625 C 196.796875 -167.859375 217.332031 -145.59375 244 -129.59375 C 270.664062 -113.59375 301.863281 -105.59375 337.59375 -105.59375 C 366.394531 -105.59375 392.257812 -110.257812 415.1875 -119.59375 C 438.125 -128.925781 456.257812 -139.992188 469.59375 -152.796875 Z M 517.59375 -48.796875 "/></g></g></g><g fill="#000000" fill-opacity="1"><g transform="translate(1514.101015, 944.977557)"><g><path d="M 367.203125 -115.203125 L 172 -115.203125 L 124 0 L 9.59375 0 L 275.203125 -612 L 281.59375 -612 L 547.203125 0 L 412.796875 0 Z M 328.796875 -212.796875 L 272 -356 L 212.796875 -212.796875 Z M 328.796875 -212.796875 "/></g></g></g><g fill="#000000" fill-opacity="1"><g transform="translate(2070.901806, 944.977557)"><g><path d="M 254.40625 -588.796875 C 326.40625 -588.796875 382.132812 -571.0625 421.59375 -535.59375 C 461.0625 -500.132812 480.796875 -451.738281 480.796875 -390.40625 C 480.796875 -355.195312 473.992188 -322.257812 460.390625 -291.59375 C 446.796875 -260.925781 424.664062 -235.726562 394 -216 C 363.332031 -196.269531 323.734375 -186.40625 275.203125 -186.40625 L 192 -186.40625 L 192 0 L 76 0 L 76 -588.796875 Z M 274.40625 -299.203125 C 296.269531 -299.203125 313.867188 -304.132812 327.203125 -314 C 340.535156 -323.863281 350.132812 -335.460938 356 -348.796875 C 361.863281 -362.128906 364.796875 -374.929688 364.796875 -387.203125 C 364.796875 -408.003906 358.660156 -428.132812 346.390625 -447.59375 C 334.128906 -467.0625 310.398438 -476.796875 275.203125 -476.796875 L 192 -476.796875 L 192 -299.203125 Z M 274.40625 -299.203125 "/></g></g></g><g fill="#000000" fill-opacity="1"><g transform="translate(2579.702601, 944.977557)"><g><path d="M 477.59375 -588.796875 L 477.59375 -476.796875 L 192 -476.796875 L 192 -351.203125 L 444.796875 -351.203125 L 444.796875 -239.203125 L 192 -239.203125 L 192 -112 L 488.796875 -112 L 488.796875 0 L 76 0 L 76 -588.796875 Z M 477.59375 -588.796875 "/></g></g></g><g fill="#000000" fill-opacity="1"><g transform="translate(3112.503394, 944.977557)"><g><path d="M 432.796875 -588.796875 L 432.796875 -476.796875 L 289.59375 -476.796875 L 289.59375 0 L 173.59375 0 L 173.59375 -476.796875 L 36 -476.796875 L 36 -588.796875 Z M 432.796875 -588.796875 "/></g></g></g><path fill="#000000" d="M 801.183594 563.941406 C 801.183594 565.476562 801.144531 567.011719 801.070312 568.542969 C 800.992188 570.078125 800.882812 571.609375 800.730469 573.136719 C 800.578125 574.664062 800.390625 576.1875 800.167969 577.707031 C 799.941406 579.222656 799.679688 580.734375 799.378906 582.242188 C 799.078125 583.746094 798.742188 585.246094 798.371094 586.734375 C 797.996094 588.222656 797.585938 589.703125 797.140625 591.171875 C 796.695312 592.640625 796.214844 594.097656 795.695312 595.542969 C 795.179688 596.988281 794.628906 598.421875 794.039062 599.839844 C 793.453125 601.257812 792.828125 602.660156 792.171875 604.046875 C 791.515625 605.433594 790.828125 606.804688 790.101562 608.160156 C 789.378906 609.511719 788.621094 610.847656 787.832031 612.164062 C 787.042969 613.480469 786.222656 614.777344 785.367188 616.054688 C 784.515625 617.332031 783.632812 618.585938 782.71875 619.820312 C 781.800781 621.050781 780.859375 622.261719 779.882812 623.449219 C 778.910156 624.636719 777.90625 625.796875 776.875 626.933594 C 775.84375 628.074219 774.785156 629.183594 773.699219 630.269531 C 772.613281 631.355469 771.503906 632.414062 770.363281 633.445312 C 769.226562 634.476562 768.066406 635.476562 766.878906 636.453125 C 765.691406 637.425781 764.480469 638.371094 763.246094 639.285156 C 762.011719 640.199219 760.757812 641.082031 759.480469 641.933594 C 758.203125 642.789062 756.90625 643.609375 755.589844 644.398438 C 754.273438 645.1875 752.9375 645.945312 751.582031 646.667969 C 750.230469 647.390625 748.859375 648.082031 747.46875 648.738281 C 746.082031 649.394531 744.679688 650.015625 743.257812 650.601562 C 741.839844 651.191406 740.410156 651.742188 738.960938 652.261719 C 737.515625 652.777344 736.058594 653.257812 734.589844 653.703125 C 733.121094 654.148438 731.640625 654.558594 730.152344 654.933594 C 728.660156 655.304688 727.164062 655.640625 725.65625 655.941406 C 724.152344 656.242188 722.640625 656.503906 721.121094 656.726562 C 719.601562 656.953125 718.078125 657.140625 716.550781 657.292969 C 715.019531 657.441406 713.492188 657.554688 711.957031 657.628906 C 710.421875 657.707031 708.886719 657.742188 707.351562 657.742188 C 705.816406 657.742188 704.28125 657.707031 702.75 657.628906 C 701.214844 657.554688 699.683594 657.441406 698.15625 657.292969 C 696.628906 657.140625 695.105469 656.953125 693.585938 656.726562 C 692.066406 656.503906 690.554688 656.242188 689.046875 655.941406 C 687.542969 655.640625 686.042969 655.304688 684.554688 654.933594 C 683.0625 654.558594 681.585938 654.148438 680.117188 653.703125 C 678.644531 653.257812 677.1875 652.777344 675.742188 652.261719 C 674.296875 651.742188 672.863281 651.191406 671.445312 650.601562 C 670.027344 650.015625 668.625 649.394531 667.234375 648.738281 C 665.847656 648.082031 664.476562 647.390625 663.121094 646.667969 C 661.765625 645.945312 660.433594 645.1875 659.113281 644.398438 C 657.796875 643.609375 656.5 642.789062 655.222656 641.933594 C 653.945312 641.082031 652.691406 640.199219 651.457031 639.285156 C 650.226562 638.371094 649.015625 637.425781 647.828125 636.453125 C 646.640625 635.476562 645.476562 634.476562 644.339844 633.445312 C 643.203125 632.414062 642.089844 631.355469 641.003906 630.269531 C 639.917969 629.183594 638.859375 628.074219 637.828125 626.933594 C 636.796875 625.796875 635.796875 624.636719 634.820312 623.449219 C 633.847656 622.261719 632.902344 621.050781 631.988281 619.820312 C 631.074219 618.585938 630.191406 617.332031 629.335938 616.054688 C 628.484375 614.777344 627.660156 613.480469 626.871094 612.164062 C 626.082031 610.847656 625.328125 609.511719 624.601562 608.160156 C 623.878906 606.804688 623.1875 605.433594 622.53125 604.046875 C 621.875 602.660156 621.253906 601.257812 620.664062 599.839844 C 620.078125 598.421875 619.527344 596.988281 619.007812 595.542969 C 618.492188 594.097656 618.007812 592.640625 617.5625 591.171875 C 617.117188 589.703125 616.707031 588.222656 616.335938 586.734375 C 615.960938 585.246094 615.625 583.746094 615.324219 582.242188 C 615.027344 580.734375 614.765625 579.222656 614.539062 577.707031 C 614.3125 576.1875 614.125 574.664062 613.976562 573.136719 C 613.824219 571.609375 613.710938 570.078125 613.636719 568.542969 C 613.5625 567.011719 613.523438 565.476562 613.523438 563.941406 C 613.523438 562.40625 613.5625 560.871094 613.636719 559.339844 C 613.710938 557.804688 613.824219 556.277344 613.976562 554.746094 C 614.125 553.21875 614.3125 551.695312 614.539062 550.179688 C 614.765625 548.660156 615.027344 547.148438 615.324219 545.640625 C 615.625 544.136719 615.960938 542.640625 616.335938 541.148438 C 616.707031 539.660156 617.117188 538.183594 617.5625 536.714844 C 618.007812 535.242188 618.492188 533.785156 619.007812 532.339844 C 619.527344 530.894531 620.078125 529.464844 620.664062 528.046875 C 621.253906 526.628906 621.875 525.226562 622.53125 523.835938 C 623.1875 522.449219 623.878906 521.078125 624.601562 519.722656 C 625.328125 518.371094 626.082031 517.035156 626.871094 515.71875 C 627.660156 514.402344 628.484375 513.105469 629.335938 511.828125 C 630.191406 510.550781 631.074219 509.296875 631.988281 508.066406 C 632.902344 506.832031 633.847656 505.621094 634.820312 504.433594 C 635.796875 503.25 636.796875 502.085938 637.828125 500.949219 C 638.859375 499.8125 639.917969 498.699219 641.003906 497.613281 C 642.089844 496.527344 643.203125 495.472656 644.339844 494.441406 C 645.476562 493.410156 646.640625 492.40625 647.828125 491.433594 C 649.015625 490.457031 650.226562 489.515625 651.457031 488.601562 C 652.691406 487.6875 653.945312 486.800781 655.222656 485.949219 C 656.5 485.097656 657.796875 484.273438 659.113281 483.484375 C 660.433594 482.695312 661.765625 481.941406 663.121094 481.21875 C 664.476562 480.492188 665.847656 479.804688 667.234375 479.148438 C 668.625 478.492188 670.027344 477.867188 671.445312 477.28125 C 672.863281 476.695312 674.296875 476.140625 675.742188 475.625 C 677.1875 475.105469 678.644531 474.625 680.117188 474.179688 C 681.585938 473.734375 683.0625 473.324219 684.554688 472.953125 C 686.042969 472.578125 687.542969 472.242188 689.046875 471.941406 C 690.554688 471.644531 692.066406 471.382812 693.585938 471.15625 C 695.105469 470.929688 696.628906 470.742188 698.15625 470.59375 C 699.683594 470.441406 701.214844 470.328125 702.75 470.253906 C 704.28125 470.179688 705.816406 470.140625 707.351562 470.140625 C 708.886719 470.140625 710.421875 470.179688 711.957031 470.253906 C 713.492188 470.328125 715.019531 470.441406 716.550781 470.59375 C 718.078125 470.742188 719.601562 470.929688 721.121094 471.15625 C 722.640625 471.382812 724.152344 471.644531 725.65625 471.941406 C 727.164062 472.242188 728.660156 472.578125 730.152344 472.953125 C 731.640625 473.324219 733.121094 473.734375 734.589844 474.179688 C 736.058594 474.625 737.515625 475.105469 738.960938 475.625 C 740.410156 476.140625 741.839844 476.695312 743.257812 477.28125 C 744.679688 477.867188 746.082031 478.492188 747.46875 479.148438 C 748.859375 479.804688 750.230469 480.492188 751.582031 481.21875 C 752.9375 481.941406 754.273438 482.695312 755.589844 483.484375 C 756.90625 484.273438 758.203125 485.097656 759.480469 485.949219 C 760.757812 486.800781 762.011719 487.6875 763.246094 488.601562 C 764.480469 489.515625 765.691406 490.457031 766.878906 491.433594 C 768.066406 492.40625 769.226562 493.410156 770.363281 494.441406 C 771.503906 495.472656 772.613281 496.527344 773.699219 497.613281 C 774.785156 498.699219 775.84375 499.8125 776.875 500.949219 C 777.90625 502.085938 778.910156 503.25 779.882812 504.433594 C 780.859375 505.621094 781.800781 506.832031 782.71875 508.066406 C 783.632812 509.296875 784.515625 510.550781 785.367188 511.828125 C 786.222656 513.105469 787.042969 514.402344 787.832031 515.71875 C 788.621094 517.035156 789.378906 518.371094 790.101562 519.722656 C 790.828125 521.078125 791.515625 522.449219 792.171875 523.835938 C 792.828125 525.226562 793.453125 526.628906 794.039062 528.046875 C 794.628906 529.464844 795.179688 530.894531 795.695312 532.339844 C 796.214844 533.785156 796.695312 535.242188 797.140625 536.714844 C 797.585938 538.183594 797.996094 539.660156 798.371094 541.148438 C 798.742188 542.640625 799.078125 544.136719 799.378906 545.640625 C 799.679688 547.148438 799.941406 548.660156 800.167969 550.179688 C 800.390625 551.695312 800.578125 553.21875 800.730469 554.746094 C 800.882812 556.277344 800.992188 557.804688 801.070312 559.339844 C 801.144531 560.871094 801.183594 562.40625 801.183594 563.941406 Z M 801.183594 563.941406 " fill-opacity="1" fill-rule="nonzero"/><g clip-path="url(#db6c5734dc)"><path fill="#000000" d="M 699.089844 941.34375 C 699.332031 941.65625 699.59375 941.957031 699.871094 942.238281 C 700.148438 942.523438 700.441406 942.792969 700.75 943.042969 C 701.058594 943.292969 701.378906 943.527344 701.714844 943.738281 C 702.050781 943.953125 702.394531 944.148438 702.753906 944.324219 C 703.109375 944.496094 703.472656 944.652344 703.847656 944.785156 C 704.222656 944.917969 704.605469 945.027344 704.992188 945.117188 C 705.378906 945.207031 705.769531 945.277344 706.164062 945.320312 C 706.558594 945.367188 706.957031 945.390625 707.351562 945.390625 C 707.75 945.390625 708.144531 945.367188 708.542969 945.320312 C 708.9375 945.277344 709.328125 945.207031 709.714844 945.117188 C 710.101562 945.027344 710.480469 944.917969 710.855469 944.785156 C 711.230469 944.652344 711.597656 944.496094 711.953125 944.324219 C 712.308594 944.148438 712.65625 943.953125 712.992188 943.738281 C 713.324219 943.527344 713.648438 943.292969 713.957031 943.042969 C 714.261719 942.792969 714.554688 942.523438 714.835938 942.238281 C 715.113281 941.957031 715.371094 941.65625 715.617188 941.34375 L 903.589844 673.742188 L 904.214844 672.800781 C 906.566406 668.546875 908.78125 664.21875 910.851562 659.816406 C 912.921875 655.417969 914.847656 650.957031 916.628906 646.429688 C 918.410156 641.90625 920.042969 637.328125 921.527344 632.699219 C 923.011719 628.070312 924.34375 623.394531 925.523438 618.679688 C 926.703125 613.960938 927.730469 609.210938 928.601562 604.425781 C 929.476562 599.644531 930.191406 594.835938 930.753906 590.007812 C 931.3125 585.175781 931.714844 580.335938 931.960938 575.476562 C 932.207031 570.621094 932.296875 565.761719 932.226562 560.902344 C 932.160156 556.039062 931.933594 551.183594 931.546875 546.339844 C 931.164062 541.492188 930.621094 536.660156 929.925781 531.847656 C 929.226562 527.035156 928.375 522.253906 927.367188 517.496094 C 926.359375 512.738281 925.195312 508.019531 923.882812 503.339844 C 922.566406 498.65625 921.101562 494.023438 919.488281 489.4375 C 917.871094 484.851562 916.109375 480.320312 914.203125 475.847656 C 912.292969 471.378906 910.242188 466.972656 908.046875 462.632812 C 905.851562 458.292969 903.515625 454.03125 901.046875 449.84375 C 898.574219 445.65625 895.96875 441.550781 893.230469 437.53125 C 890.492188 433.515625 887.628906 429.589844 884.632812 425.753906 C 881.640625 421.921875 878.527344 418.191406 875.292969 414.558594 C 872.058594 410.929688 868.707031 407.40625 865.246094 403.992188 C 861.78125 400.578125 858.210938 397.28125 854.53125 394.097656 C 850.855469 390.917969 847.078125 387.859375 843.203125 384.921875 C 839.328125 381.984375 835.359375 379.175781 831.300781 376.496094 C 827.242188 373.816406 823.101562 371.269531 818.878906 368.859375 C 814.652344 366.449219 810.355469 364.175781 805.984375 362.042969 C 801.613281 359.910156 797.179688 357.921875 792.679688 356.078125 C 788.179688 354.234375 783.621094 352.535156 779.011719 350.988281 C 774.402344 349.4375 769.746094 348.039062 765.046875 346.792969 C 760.34375 345.542969 755.609375 344.449219 750.835938 343.511719 C 746.0625 342.570312 741.265625 341.785156 736.445312 341.15625 C 731.621094 340.527344 726.78125 340.054688 721.929688 339.742188 C 717.074219 339.425781 712.214844 339.269531 707.351562 339.269531 C 702.488281 339.269531 697.628906 339.425781 692.777344 339.742188 C 687.921875 340.054688 683.085938 340.527344 678.261719 341.15625 C 673.4375 341.785156 668.640625 342.570312 663.871094 343.511719 C 659.097656 344.449219 654.359375 345.542969 649.660156 346.792969 C 644.957031 348.039062 640.304688 349.4375 635.691406 350.988281 C 631.082031 352.535156 626.527344 354.234375 622.027344 356.078125 C 617.527344 357.921875 613.089844 359.910156 608.71875 362.042969 C 604.347656 364.175781 600.050781 366.449219 595.828125 368.859375 C 591.605469 371.269531 587.464844 373.816406 583.40625 376.496094 C 579.347656 379.175781 575.378906 381.984375 571.503906 384.921875 C 567.628906 387.859375 563.851562 390.917969 560.171875 394.097656 C 556.496094 397.28125 552.925781 400.578125 549.460938 403.992188 C 545.996094 407.40625 542.648438 410.929688 539.414062 414.558594 C 536.179688 418.191406 533.0625 421.921875 530.070312 425.753906 C 527.078125 429.589844 524.210938 433.515625 521.476562 437.53125 C 518.738281 441.550781 516.132812 445.65625 513.660156 449.84375 C 511.1875 454.03125 508.855469 458.292969 506.660156 462.632812 C 504.464844 466.972656 502.414062 471.378906 500.503906 475.847656 C 498.59375 480.320312 496.832031 484.851562 495.21875 489.4375 C 493.601562 494.023438 492.136719 498.65625 490.824219 503.339844 C 489.507812 508.019531 488.347656 512.738281 487.339844 517.496094 C 486.332031 522.253906 485.476562 527.035156 484.78125 531.847656 C 484.082031 536.660156 483.542969 541.492188 483.15625 546.335938 C 482.773438 551.183594 482.546875 556.039062 482.476562 560.902344 C 482.410156 565.761719 482.496094 570.621094 482.742188 575.476562 C 482.988281 580.335938 483.394531 585.175781 483.953125 590.007812 C 484.515625 594.835938 485.230469 599.644531 486.101562 604.425781 C 486.976562 609.210938 488 613.960938 489.183594 618.679688 C 490.363281 623.394531 491.695312 628.070312 493.179688 632.699219 C 494.664062 637.328125 496.296875 641.90625 498.078125 646.429688 C 499.859375 650.957031 501.785156 655.417969 503.855469 659.816406 C 505.925781 664.21875 508.136719 668.546875 510.488281 672.800781 L 511.117188 673.742188 Z M 707.351562 449.855469 C 709.21875 449.855469 711.085938 449.898438 712.953125 449.992188 C 714.816406 450.082031 716.679688 450.21875 718.539062 450.402344 C 720.398438 450.585938 722.25 450.816406 724.097656 451.089844 C 725.945312 451.363281 727.785156 451.683594 729.617188 452.046875 C 731.449219 452.410156 733.269531 452.820312 735.082031 453.273438 C 736.894531 453.726562 738.695312 454.222656 740.480469 454.765625 C 742.269531 455.308594 744.039062 455.894531 745.800781 456.523438 C 747.558594 457.152344 749.300781 457.824219 751.027344 458.539062 C 752.75 459.253906 754.457031 460.007812 756.144531 460.808594 C 757.835938 461.605469 759.503906 462.445312 761.148438 463.324219 C 762.796875 464.207031 764.421875 465.125 766.023438 466.085938 C 767.625 467.046875 769.203125 468.042969 770.753906 469.082031 C 772.308594 470.117188 773.835938 471.191406 775.335938 472.304688 C 776.835938 473.417969 778.308594 474.566406 779.75 475.75 C 781.195312 476.933594 782.609375 478.15625 783.992188 479.410156 C 785.375 480.664062 786.730469 481.949219 788.050781 483.269531 C 789.371094 484.589844 790.65625 485.941406 791.910156 487.324219 C 793.167969 488.707031 794.386719 490.121094 795.570312 491.566406 C 796.753906 493.007812 797.902344 494.480469 799.015625 495.980469 C 800.128906 497.480469 801.203125 499.003906 802.242188 500.558594 C 803.28125 502.109375 804.277344 503.6875 805.238281 505.289062 C 806.199219 506.890625 807.121094 508.515625 808 510.160156 C 808.878906 511.808594 809.71875 513.476562 810.519531 515.164062 C 811.316406 516.851562 812.074219 518.558594 812.789062 520.28125 C 813.503906 522.007812 814.175781 523.75 814.804688 525.507812 C 815.433594 527.265625 816.019531 529.039062 816.5625 530.824219 C 817.101562 532.609375 817.601562 534.410156 818.054688 536.222656 C 818.507812 538.03125 818.917969 539.851562 819.28125 541.683594 C 819.648438 543.515625 819.964844 545.355469 820.238281 547.203125 C 820.515625 549.050781 820.742188 550.902344 820.925781 552.757812 C 821.109375 554.617188 821.246094 556.480469 821.335938 558.34375 C 821.429688 560.207031 821.476562 562.074219 821.476562 563.941406 C 821.476562 565.808594 821.429688 567.675781 821.335938 569.539062 C 821.246094 571.40625 821.109375 573.265625 820.925781 575.125 C 820.742188 576.984375 820.515625 578.835938 820.238281 580.683594 C 819.964844 582.527344 819.648438 584.367188 819.28125 586.199219 C 818.917969 588.03125 818.507812 589.851562 818.054688 591.664062 C 817.601562 593.472656 817.101562 595.273438 816.5625 597.058594 C 816.019531 598.847656 815.433594 600.621094 814.804688 602.378906 C 814.175781 604.136719 813.503906 605.875 812.789062 607.601562 C 812.074219 609.328125 811.316406 611.03125 810.519531 612.722656 C 809.71875 614.410156 808.878906 616.078125 808 617.722656 C 807.121094 619.371094 806.199219 620.992188 805.238281 622.59375 C 804.277344 624.195312 803.28125 625.773438 802.242188 627.324219 C 801.203125 628.878906 800.128906 630.40625 799.015625 631.90625 C 797.902344 633.402344 796.753906 634.875 795.570312 636.320312 C 794.386719 637.761719 793.167969 639.175781 791.910156 640.558594 C 790.65625 641.941406 789.371094 643.292969 788.050781 644.613281 C 786.730469 645.933594 785.375 647.222656 783.992188 648.476562 C 782.609375 649.730469 781.195312 650.949219 779.75 652.132812 C 778.308594 653.316406 776.835938 654.464844 775.335938 655.578125 C 773.835938 656.691406 772.308594 657.765625 770.753906 658.804688 C 769.203125 659.839844 767.625 660.839844 766.023438 661.796875 C 764.421875 662.757812 762.796875 663.679688 761.148438 664.558594 C 759.503906 665.4375 757.835938 666.277344 756.144531 667.078125 C 754.457031 667.875 752.75 668.632812 751.027344 669.347656 C 749.300781 670.058594 747.558594 670.730469 745.800781 671.359375 C 744.039062 671.988281 742.269531 672.574219 740.480469 673.117188 C 738.695312 673.660156 736.894531 674.15625 735.082031 674.609375 C 733.269531 675.066406 731.449219 675.472656 729.617188 675.839844 C 727.785156 676.203125 725.945312 676.523438 724.097656 676.796875 C 722.25 677.070312 720.398438 677.296875 718.539062 677.480469 C 716.679688 677.664062 714.816406 677.800781 712.953125 677.894531 C 711.085938 677.984375 709.21875 678.03125 707.351562 678.03125 C 705.484375 678.03125 703.617188 677.984375 701.753906 677.894531 C 699.886719 677.800781 698.027344 677.664062 696.167969 677.480469 C 694.308594 677.296875 692.453125 677.070312 690.605469 676.796875 C 688.761719 676.523438 686.921875 676.203125 685.089844 675.839844 C 683.257812 675.472656 681.433594 675.066406 679.625 674.609375 C 677.8125 674.15625 676.011719 673.660156 674.226562 673.117188 C 672.4375 672.574219 670.664062 671.988281 668.90625 671.359375 C 667.148438 670.730469 665.40625 670.058594 663.679688 669.347656 C 661.953125 668.632812 660.246094 667.875 658.558594 667.078125 C 656.871094 666.277344 655.203125 665.4375 653.554688 664.558594 C 651.910156 663.679688 650.285156 662.757812 648.683594 661.796875 C 647.078125 660.839844 645.503906 659.839844 643.949219 658.804688 C 642.398438 657.765625 640.871094 656.691406 639.371094 655.578125 C 637.871094 654.464844 636.398438 653.316406 634.953125 652.132812 C 633.511719 650.949219 632.097656 649.730469 630.710938 648.476562 C 629.328125 647.222656 627.976562 645.933594 626.65625 644.613281 C 625.335938 643.292969 624.046875 641.941406 622.792969 640.558594 C 621.539062 639.175781 620.320312 637.761719 619.136719 636.320312 C 617.949219 634.875 616.800781 633.402344 615.6875 631.90625 C 614.574219 630.40625 613.5 628.878906 612.464844 627.324219 C 611.425781 625.773438 610.425781 624.195312 609.464844 622.59375 C 608.507812 620.992188 607.585938 619.371094 606.707031 617.722656 C 605.824219 616.078125 604.984375 614.410156 604.1875 612.722656 C 603.386719 611.03125 602.632812 609.328125 601.917969 607.601562 C 601.203125 605.875 600.53125 604.136719 599.902344 602.378906 C 599.273438 600.621094 598.6875 598.847656 598.144531 597.058594 C 597.601562 595.273438 597.105469 593.472656 596.648438 591.664062 C 596.195312 589.851562 595.789062 588.03125 595.421875 586.199219 C 595.058594 584.367188 594.738281 582.527344 594.464844 580.683594 C 594.191406 578.835938 593.960938 576.984375 593.78125 575.125 C 593.597656 573.265625 593.460938 571.40625 593.367188 569.539062 C 593.277344 567.675781 593.230469 565.808594 593.230469 563.941406 C 593.234375 562.074219 593.28125 560.210938 593.378906 558.347656 C 593.472656 556.484375 593.613281 554.621094 593.796875 552.765625 C 593.984375 550.910156 594.214844 549.058594 594.492188 547.210938 C 594.769531 545.367188 595.089844 543.527344 595.457031 541.699219 C 595.824219 539.871094 596.234375 538.050781 596.691406 536.238281 C 597.148438 534.429688 597.648438 532.632812 598.191406 530.847656 C 598.734375 529.0625 599.324219 527.292969 599.953125 525.535156 C 600.582031 523.777344 601.257812 522.039062 601.972656 520.316406 C 602.6875 518.589844 603.445312 516.886719 604.246094 515.199219 C 605.046875 513.515625 605.886719 511.847656 606.765625 510.203125 C 607.648438 508.558594 608.570312 506.933594 609.53125 505.335938 C 610.492188 503.734375 611.488281 502.160156 612.527344 500.609375 C 613.566406 499.054688 614.640625 497.53125 615.753906 496.03125 C 616.867188 494.535156 618.015625 493.0625 619.199219 491.621094 C 620.382812 490.179688 621.601562 488.765625 622.855469 487.382812 C 624.109375 486 625.398438 484.648438 626.71875 483.332031 C 628.035156 482.011719 629.386719 480.722656 630.773438 479.472656 C 632.15625 478.21875 633.566406 477 635.011719 475.816406 C 636.453125 474.628906 637.925781 473.480469 639.421875 472.371094 C 640.921875 471.257812 642.449219 470.183594 644 469.144531 C 645.550781 468.109375 647.125 467.109375 648.726562 466.148438 C 650.328125 465.1875 651.953125 464.269531 653.597656 463.386719 C 655.242188 462.507812 656.910156 461.664062 658.597656 460.867188 C 660.28125 460.066406 661.988281 459.308594 663.710938 458.59375 C 665.4375 457.878906 667.175781 457.207031 668.933594 456.574219 C 670.691406 455.945312 672.460938 455.355469 674.246094 454.8125 C 676.035156 454.269531 677.832031 453.769531 679.640625 453.3125 C 681.453125 452.859375 683.273438 452.445312 685.101562 452.082031 C 686.933594 451.714844 688.773438 451.390625 690.617188 451.117188 C 692.464844 450.839844 694.316406 450.609375 696.171875 450.421875 C 698.03125 450.234375 699.890625 450.097656 701.757812 450 C 703.621094 449.90625 705.484375 449.855469 707.351562 449.855469 Z M 707.351562 449.855469 " fill-opacity="1" fill-rule="nonzero"/></g><g clip-path="url(#fdee6598ce)"><path fill="#000000" d="M 2221.222656 433.15625 L 2467.742188 433.15625 L 2467.742188 676.820312 L 2221.222656 676.820312 Z M 2221.222656 433.15625 " fill-opacity="1" fill-rule="nonzero"/></g><path fill="#ffffff" d="M 2313.875 534.503906 C 2315.292969 534.503906 2316.714844 534.351562 2318.136719 534.039062 C 2325.347656 532.460938 2331.132812 527.007812 2334.421875 518.6875 C 2337.46875 510.980469 2338.015625 501.585938 2335.96875 492.234375 C 2333.921875 482.882812 2329.492188 474.574219 2323.503906 468.847656 C 2317.039062 462.664062 2309.507812 460.128906 2302.292969 461.710938 C 2295.078125 463.289062 2289.292969 468.738281 2286.003906 477.0625 C 2282.960938 484.769531 2282.410156 494.164062 2284.457031 503.515625 C 2288.464844 521.804688 2300.886719 534.503906 2313.875 534.503906 " fill-opacity="1" fill-rule="nonzero"/><g clip-path="url(#c8ce3724a3)"><path fill="#ffffff" d="M 2291.625 554.226562 C 2291.84375 547.195312 2289.59375 539.542969 2285.28125 532.679688 C 2280.972656 525.820312 2275.058594 520.464844 2268.632812 517.609375 C 2261.601562 514.484375 2254.746094 514.636719 2249.328125 518.039062 C 2243.910156 521.4375 2240.792969 527.546875 2240.554688 535.238281 C 2240.335938 542.269531 2242.585938 549.921875 2246.894531 556.78125 C 2251.203125 563.644531 2257.113281 569 2263.542969 571.855469 C 2266.902344 573.347656 2270.222656 574.09375 2273.363281 574.09375 C 2276.796875 574.09375 2280.019531 573.203125 2282.847656 571.425781 C 2288.265625 568.023438 2291.382812 561.917969 2291.625 554.226562 " fill-opacity="1" fill-rule="nonzero"/></g><path fill="#ffffff" d="M 2371.117188 533.1875 C 2372.519531 533.492188 2373.929688 533.648438 2375.34375 533.648438 C 2381.214844 533.648438 2387.121094 531.03125 2392.332031 526.046875 C 2398.320312 520.320312 2402.746094 512.015625 2404.796875 502.664062 C 2406.84375 493.3125 2406.292969 483.914062 2403.25 476.207031 C 2399.960938 467.886719 2394.175781 462.433594 2386.960938 460.855469 C 2372.53125 457.6875 2357.726562 471.097656 2353.285156 491.378906 C 2348.84375 511.65625 2356.675781 530.023438 2371.117188 533.1875 " fill-opacity="1" fill-rule="nonzero"/><path fill="#ffffff" d="M 2439.925781 517.183594 C 2429.164062 510.425781 2413.371094 516.859375 2403.972656 531.828125 C 2394.574219 546.796875 2395.640625 563.8125 2406.40625 570.574219 C 2409.234375 572.347656 2412.457031 573.238281 2415.890625 573.238281 C 2419.03125 573.238281 2422.351562 572.492188 2425.707031 571.003906 C 2432.136719 568.144531 2438.050781 562.789062 2442.359375 555.929688 C 2446.667969 549.066406 2448.917969 541.414062 2448.699219 534.386719 C 2448.457031 526.695312 2445.34375 520.585938 2439.925781 517.183594 " fill-opacity="1" fill-rule="nonzero"/><g clip-path="url(#6e3f3a9d4e)"><path fill="#ffffff" d="M 2402.789062 583.710938 L 2370.402344 552.3125 C 2356.167969 538.515625 2333.085938 538.515625 2318.851562 552.3125 L 2286.460938 583.710938 L 2286.386719 583.785156 C 2271.917969 597.804688 2269.640625 620.160156 2281.863281 636.0625 C 2292.441406 649.820312 2309.636719 654.832031 2325.035156 651.09375 L 2325.035156 651.097656 C 2325.039062 651.09375 2325.046875 651.089844 2325.046875 651.089844 C 2327.949219 650.386719 2330.78125 649.355469 2333.496094 648.027344 C 2340.800781 646.167969 2348.453125 646.167969 2355.753906 648.027344 C 2358.472656 649.355469 2361.304688 650.386719 2364.210938 651.089844 C 2364.210938 651.09375 2364.214844 651.09375 2364.21875 651.09375 L 2364.21875 651.097656 L 2364.21875 651.09375 C 2379.617188 654.832031 2396.8125 649.820312 2407.390625 636.0625 C 2419.609375 620.164062 2417.335938 597.808594 2402.871094 583.789062 L 2402.789062 583.710938 " fill-opacity="1" fill-rule="nonzero"/></g><g fill="#000000" fill-opacity="1"><g transform="translate(65.72339, 944.977557)"><g><path d="M 192 -588.796875 L 192 -112 L 468.796875 -112 L 468.796875 0 L 76 0 L 76 -588.796875 Z M 192 -588.796875 "/></g></g></g></svg>